<?xml version="1.0" standalone="no"?>
<!DOCTYPE svg PUBLIC "-//W3C//DTD SVG 1.1//EN" "http://www.w3.org/Graphics/SVG/1.1/DTD/svg11.dtd" >
<svg xmlns="http://www.w3.org/2000/svg">
<metadata></metadata>
<defs>
<font id="kievitbold_italic" horiz-adv-x="2205" >
<font-face units-per-em="2048" ascent="1638" descent="-410" />
<missing-glyph horiz-adv-x="450" />
<glyph unicode="&#xfb01;" horiz-adv-x="1472" d="M59 0l201 1071h670l-39 -215h-406l-43 -238h363l-37 -204h-365l-75 -414h-269zM961 0l200 1071h271l-201 -1071h-270z" />
<glyph unicode="&#xfb02;" horiz-adv-x="1785" d="M59 0l201 1071h670l-39 -215h-406l-43 -238h363l-37 -204h-365l-75 -414h-269zM952 0l201 1071h268l-159 -856h415l-37 -215h-688z" />
<glyph horiz-adv-x="2048" />
<glyph horiz-adv-x="2048" />
<glyph unicode="&#xd;" horiz-adv-x="450" />
<glyph unicode=" "  horiz-adv-x="450" />
<glyph unicode="&#x09;" horiz-adv-x="450" />
<glyph unicode="&#xa0;" horiz-adv-x="450" />
<glyph unicode="!" horiz-adv-x="495" d="M27 133q0 59 44 102.5t111 43.5q70 0 112 -43t42 -103q0 -59 -42 -102t-112 -43q-68 0 -111.5 43t-43.5 102zM123 381l80 690h297l-189 -690h-188z" />
<glyph unicode="&#x22;" horiz-adv-x="806" d="M225 864l19 500h260l-107 -500h-172zM549 864l53 500h264l-141 -500h-176z" />
<glyph unicode="#" horiz-adv-x="1138" d="M16 381l68 203h213l63 211h-215l62 200h211l110 369h183l-109 -369h197l110 369h183l-111 -369h205l-66 -200h-196l-64 -211h203l-66 -203h-198l-113 -381h-182l112 381h-198l-113 -381h-182l113 381h-220zM471 578h209l68 223h-209z" />
<glyph unicode="$" horiz-adv-x="1005" d="M-23 127l156 195q29 -27 85 -63t149 -48l65 385q-4 4 -7 6t-7 6q-47 39 -91 79t-79 88t-56.5 105.5t-21.5 131.5q0 82 26.5 146.5t76 110.5t117 74.5t147.5 38.5l38 224h213l-40 -226q100 -16 157.5 -49t89.5 -57l-135 -201q-29 23 -73 48.5t-109 35.5l-60 -348 q4 -4 7.5 -6t7.5 -6q49 -39 99 -79t89 -88t63.5 -108.5t24.5 -140.5q0 -158 -101 -268.5t-302 -132.5l-37 -222h-213l37 226q-63 8 -113.5 26.5t-89.5 39t-66.5 41t-46.5 36.5zM446 1024q0 -31 10.5 -55.5t30.5 -48.5l39 227q-80 -31 -80 -123zM516 221q59 16 85 54t26 85 q0 39 -15.5 69t-48.5 60z" />
<glyph unicode="%" horiz-adv-x="1726" d="M129 981q0 78 28.5 151.5t83 130t132.5 90t174 33.5q80 0 142.5 -23.5t103.5 -64.5t62.5 -95t21.5 -113q0 -80 -30 -154t-84 -131t-132 -92t-174 -35q-82 0 -143.5 25.5t-102.5 67.5t-61.5 96.5t-20.5 113.5zM260 0l1049 1364h219l-1049 -1364h-219zM354 987 q0 -59 29 -99t90 -40q41 0 74 19.5t56.5 52t35.5 74.5t12 87q0 59 -29.5 97.5t-89.5 38.5q-43 0 -75.5 -19.5t-55 -51.5t-35 -73t-12.5 -86zM918 283q0 80 28.5 152.5t82.5 130t132 91t174 33.5q80 0 142.5 -24.5t103.5 -65.5t62.5 -94t21.5 -113q0 -80 -29.5 -153.5 t-84 -132t-132.5 -93t-174 -34.5q-82 0 -143.5 25.5t-102.5 67.5t-61 96t-20 114zM1143 289q0 -59 29 -99t90 -40q41 0 73.5 20t56 53t36 75t12.5 87q0 59 -30 96t-89 37q-43 0 -76 -19.5t-55.5 -51t-34.5 -72.5t-12 -86z" />
<glyph unicode="&#x26;" horiz-adv-x="1132" d="M23 250q0 129 75.5 208t216.5 136q-31 47 -48 96t-17 96q0 74 28.5 131.5t79 95.5t116 58.5t138.5 20.5q150 0 224.5 -64.5t74.5 -163.5q0 -92 -73.5 -165.5t-204.5 -139.5l131 -182q66 84 102 186l203 -31q-63 -174 -190 -313l157 -219h-284l-54 72 q-74 -43 -153.5 -66.5t-165.5 -23.5q-92 0 -158.5 21.5t-110.5 57t-65.5 85t-21.5 104.5zM281 285q0 -51 35.5 -84t109.5 -33q41 0 83 13.5t83 35.5l-180 244q-66 -35 -98.5 -76t-32.5 -100zM489 819q0 -41 16.5 -75.5t39.5 -65.5q80 41 110.5 81t30.5 81q0 37 -22.5 61.5 t-63.5 24.5q-49 0 -80 -30t-31 -77z" />
<glyph unicode="'" horiz-adv-x="452" d="M201 864l41 500h272l-139 -500h-174z" />
<glyph unicode="(" horiz-adv-x="675" d="M66 358q0 219 59 400.5t143 323t175.5 239.5t154.5 154h260q-66 -61 -153 -164t-165.5 -244t-134 -318.5t-55.5 -388.5q0 -129 16.5 -234.5t44 -191.5t60.5 -154.5t68 -123.5h-244q-29 39 -68 101.5t-74.5 150.5t-61 200.5t-25.5 249.5z" />
<glyph unicode=")" horiz-adv-x="679" d="M-162 -344q82 82 172 195.5t167 257t127 316.5t50 374q0 131 -19.5 238.5t-49 192.5t-63.5 145.5t-62 99.5h248q33 -37 72.5 -98.5t74.5 -146.5t59.5 -192.5t24.5 -236.5q0 -154 -29.5 -288t-76 -250t-105.5 -211t-118.5 -172t-114 -133t-91.5 -91h-266z" />
<glyph unicode="*" horiz-adv-x="960" d="M156 995l98 193l233 -92l27 268h227l-61 -268l254 96l49 -207l-285 -63l152 -224l-195 -112l-110 241l-191 -241l-168 129l224 213z" />
<glyph unicode="+" horiz-adv-x="1122" d="M92 434l39 207h342l62 354h227l-62 -354h342l-36 -207h-342l-64 -364h-229l65 364h-344z" />
<glyph unicode="," horiz-adv-x="550" d="M4 -244q47 47 81 92.5t34 102.5q0 33 -11.5 55.5t-25.5 45t-25.5 48t-11.5 64.5q0 72 49 117t121 45q78 0 127 -54.5t49 -142.5q0 -63 -23.5 -127.5t-63.5 -124t-90 -115t-103 -100.5z" />
<glyph unicode="-" horiz-adv-x="659" d="M94 467l37 221h463l-39 -221h-461z" />
<glyph unicode="." horiz-adv-x="550" d="M41 154q0 72 52 121t126 49t125 -49.5t51 -120.5q0 -74 -51 -124t-125 -50t-126 50t-52 124z" />
<glyph unicode="/" horiz-adv-x="921" d="M-137 -330l952 1805h268l-950 -1805h-270z" />
<glyph unicode="0" horiz-adv-x="1230" d="M90 508q0 100 17.5 203.5t53.5 202t90 184.5t128 150.5t168 102.5t207 38q123 0 210 -42t140 -115t77.5 -168t24.5 -202q0 -164 -41 -322.5t-124 -284.5t-207.5 -203t-292.5 -77q-123 0 -209 43t-139.5 116t-78 169t-24.5 205zM371 494q0 -145 46 -223t150 -78 q86 0 152.5 62t112 160.5t69 220.5t23.5 243q0 139 -45 215.5t-152 76.5q-90 0 -156.5 -64.5t-111.5 -163.5t-66.5 -219t-21.5 -230z" />
<glyph unicode="1" horiz-adv-x="774" d="M125 1257l407 105h209l-235 -1362h-268l194 1124l-250 -73z" />
<glyph unicode="2" horiz-adv-x="1036" d="M-23 0l27 147q158 125 292 238t231.5 218.5t151.5 205.5t54 201q0 78 -46 117.5t-118 39.5q-86 0 -155.5 -35.5t-124.5 -80.5l-123 168q78 68 194.5 119t262.5 51q207 0 308 -94.5t101 -245.5q0 -115 -54 -223.5t-144.5 -212t-207 -203t-243.5 -197.5q27 0 53 2 q23 2 50.5 3t50.5 1h383l-39 -219h-904z" />
<glyph unicode="3" horiz-adv-x="978" d="M-8 4l74 215q16 -6 61 -15t115 -9q160 0 252 60t92 183q0 98 -87 142.5t-247 37.5l31 187q180 14 276 75.5t96 163.5q0 57 -38.5 90t-112.5 33t-135.5 -18.5t-108.5 -46.5l-88 172q63 43 166.5 79t234.5 36q188 0 279.5 -80t91.5 -199q0 -76 -28.5 -134t-74.5 -102.5 t-106.5 -75t-122.5 -48.5v-5q49 -6 96.5 -29.5t85 -60.5t60.5 -87t23 -113q0 -223 -169.5 -351.5t-484.5 -128.5q-104 0 -157.5 10.5t-73.5 18.5z" />
<glyph unicode="4" horiz-adv-x="1179" d="M16 283l31 184l787 897h251l-151 -868h196l-36 -213h-197l-47 -283h-266l49 283h-617zM322 489q49 6 149 7h201l88 503h-4z" />
<glyph unicode="5" horiz-adv-x="944" d="M-14 2l63 219q20 -10 62.5 -18t107.5 -8q166 0 260 69.5t94 204.5q0 106 -77.5 153.5t-212.5 47.5q-39 0 -78 -4t-62 -9l138 707h671l-37 -219h-430l-51 -266q199 -10 314.5 -107.5t115.5 -267.5q0 -256 -174 -392.5t-491 -136.5q-86 0 -141.5 11.5t-71.5 15.5z" />
<glyph unicode="6" horiz-adv-x="1120" d="M86 455q0 207 76 379t207 294.5t309 191.5t385 69l31 -222q-266 0 -443 -112q-169 -109 -241 -310q53 45 122.5 74t153.5 29q166 0 267.5 -94.5t101.5 -264.5q0 -115 -40 -209t-109.5 -161.5t-165 -105.5t-203.5 -38q-123 0 -208 40t-139.5 106.5t-79 152.5t-24.5 181z M360 438q0 -127 47.5 -190.5t137.5 -63.5q55 0 99 23.5t72.5 61.5t44 89.5t15.5 106.5q0 86 -45 131t-123 45q-80 0 -137 -24.5t-104 -71.5q-6 -53 -7 -107z" />
<glyph unicode="7" horiz-adv-x="960" d="M100 37l592 1100h-542l36 227h846l-24 -150l-684 -1273z" />
<glyph unicode="8" horiz-adv-x="1058" d="M33 295q0 147 91 241.5t238 161.5q-78 55 -125 130t-47 167q0 90 39 163t104.5 124t150.5 79t180 28q188 0 293.5 -81t105.5 -225q0 -123 -83 -208.5t-218 -151.5q92 -59 152.5 -135t60.5 -187q0 -90 -34 -167.5t-98.5 -135t-159.5 -90.5t-218 -33q-104 0 -185 25 t-136.5 68t-83 101t-27.5 126zM309 326q0 -61 41 -103.5t129 -42.5q98 0 155.5 54.5t57.5 136.5q0 63 -44 113.5t-130 105.5q-100 -53 -154.5 -114.5t-54.5 -149.5zM469 1016q0 -57 33 -101.5t96 -85.5q94 53 142 106.5t48 123.5q0 55 -32.5 91t-110.5 36t-127 -48t-49 -122 z" />
<glyph unicode="9" horiz-adv-x="1118" d="M92 184q113 0 215.5 24.5t184.5 72.5q206 108 286 335q-55 -47 -127.5 -73.5t-150.5 -26.5q-82 0 -150.5 24.5t-118 71.5t-77 115t-27.5 152q0 117 45 211t120 160.5t170 102.5t197 36q119 0 204 -40t137.5 -105.5t77 -151.5t24.5 -179q0 -201 -63.5 -374.5 t-186.5 -301.5t-304 -201t-417 -73zM410 901q0 -90 45 -134t129 -44q72 0 130 24.5t105 65.5q6 55 6 113q0 123 -47 188.5t-137 65.5q-53 0 -96 -23.5t-73 -62.5t-46 -89.5t-16 -103.5z" />
<glyph unicode=":" horiz-adv-x="550" d="M41 154q0 72 52 121t126 49t125 -49.5t51 -120.5q0 -74 -51 -124t-125 -50t-126 50t-52 124zM160 838q0 72 52 121t126 49t125 -49.5t51 -120.5q0 -74 -51 -124t-125 -50t-126 50t-52 124z" />
<glyph unicode=";" horiz-adv-x="550" d="M4 -244q47 47 81 92.5t34 102.5q0 33 -11.5 55.5t-25.5 45t-25.5 48t-11.5 64.5q0 72 49 117t121 45q78 0 127 -54.5t49 -142.5q0 -63 -23.5 -127.5t-63.5 -124t-90 -115t-103 -100.5zM162 838q0 72 51 121t127 49q37 0 68.5 -13.5t55 -37t38 -54.5t14.5 -65 q0 -74 -52 -124t-124 -50q-76 0 -127 50t-51 124z" />
<glyph unicode="&#x3c;" horiz-adv-x="825" d="M72 510l579 469l127 -162l-399 -319l297 -312l-154 -145z" />
<glyph unicode="=" horiz-adv-x="1032" d="M66 244l36 209h811l-36 -209h-811zM135 627l35 209h811l-37 -209h-809z" />
<glyph unicode="&#x3e;" horiz-adv-x="825" d="M45 205l401 321l-296 308l153 143l451 -467l-580 -469z" />
<glyph unicode="?" horiz-adv-x="704" d="M49 133q0 59 43 102.5t111 43.5t110.5 -43t42.5 -103q0 -59 -42.5 -102t-110.5 -43t-111 43t-43 102zM109 1034q57 29 120.5 43.5t153.5 14.5q86 0 148.5 -20.5t103.5 -54.5t60.5 -78t19.5 -91q0 -61 -20.5 -106.5t-53.5 -80t-74 -60.5t-80 -46q-53 -29 -80.5 -54.5 t-35.5 -68.5l-11 -53h-217l15 80q12 78 47 120t90 72q63 35 104 64.5t41 85.5q0 82 -112 82q-47 0 -82 -11.5t-58 -21.5z" />
<glyph unicode="@" horiz-adv-x="1603" d="M82 494q0 152 57.5 296t158.5 255.5t242.5 180t311.5 68.5q176 0 310 -53t223.5 -142t134.5 -205t45 -241q0 -109 -30 -198.5t-84 -154t-130 -100.5t-168 -36q-111 0 -160 49t-57 127h-6q-16 -29 -41 -59.5t-57.5 -55t-74.5 -41t-93 -16.5q-49 0 -88 19.5t-66 52 t-41 77.5t-14 95q0 111 29.5 209t85 173.5t136 119.5t183.5 44q88 0 168 -18t131 -37l-58 -342q-6 -35 -11 -69.5t-5 -63.5q0 -41 19.5 -65.5t54.5 -24.5q39 0 75.5 20.5t63.5 59.5t43 95t16 126q0 117 -37.5 207t-108.5 152.5t-169 94t-221 31.5q-115 0 -217.5 -47 t-180 -130t-123.5 -197.5t-46 -249.5q0 -248 135 -388.5t397 -140.5q88 0 167 18.5t128 41.5l66 -162q-29 -12 -71 -24.5t-92 -22.5t-106.5 -16.5t-113.5 -6.5q-166 0 -297 52.5t-223.5 144.5t-141.5 219t-49 279zM678 453q0 -41 14 -71t53 -30q43 0 77 31t60.5 82t47 117.5 t35.5 140.5l12 57q-16 6 -44 11.5t-52 5.5q-49 0 -86 -29t-63.5 -77t-40 -109.5t-13.5 -128.5z" />
<glyph unicode="A" horiz-adv-x="1351" d="M-59 0l757 1364h275l258 -1364h-299l-39 256h-526l-134 -256h-292zM487 487h371l-51 332q-8 47 -12 90t-9 78q-4 39 -8 76h-4q-14 -37 -33 -76q-16 -35 -36.5 -78t-42.5 -90z" />
<glyph unicode="B" horiz-adv-x="1220" d="M80 0l244 1364h434q88 0 163.5 -18.5t131 -56.5t86 -97t30.5 -139q0 -147 -79.5 -233.5t-210.5 -119.5v-4q102 -18 170.5 -83.5t68.5 -182.5q0 -111 -43 -192.5t-119.5 -134t-183 -78t-235.5 -25.5h-457zM399 219h160q147 0 212 56.5t65 156.5q0 80 -52.5 123t-156.5 43 h-160zM502 801h153q121 0 177.5 56t56.5 144q0 72 -44 109t-143 37h-139z" />
<glyph unicode="C" horiz-adv-x="1253" d="M102 555q0 168 58.5 319.5t165 265t255 181.5t330.5 68q156 0 248 -30t148 -71l-140 -213q-49 35 -113.5 54.5t-158.5 19.5q-109 0 -200 -45t-155.5 -124t-100.5 -184.5t-36 -226.5q0 -158 75 -256t235 -98q104 0 179 36t134 83l115 -207q-29 -27 -74 -53.5t-103.5 -48 t-128 -36t-149.5 -14.5q-152 0 -262.5 46.5t-182 125t-105.5 184t-34 224.5z" />
<glyph unicode="D" horiz-adv-x="1415" d="M78 0l241 1364h400q166 0 290 -39t205.5 -109.5t122.5 -171t41 -223.5q0 -164 -54 -313.5t-162.5 -262t-271.5 -179t-382 -66.5h-430zM403 231h158q127 0 224.5 43t162 120t97 183.5t32.5 233.5q0 164 -90 243t-282 79h-142z" />
<glyph unicode="E" horiz-adv-x="1069" d="M78 0l241 1364h773l-43 -238h-490l-55 -307h432l-41 -225h-430l-66 -356h506l-43 -238h-784z" />
<glyph unicode="F" horiz-adv-x="1038" d="M80 0l244 1364h768l-41 -238h-486l-61 -333h428l-41 -226h-426l-100 -567h-285z" />
<glyph unicode="G" horiz-adv-x="1433" d="M104 563q0 170 62.5 320.5t174.5 262t264.5 177.5t332.5 66q88 0 156.5 -9.5t122 -25t92.5 -35t69 -39.5l-149 -219q-47 35 -128 61.5t-188 26.5q-117 0 -211 -44t-160.5 -121t-101 -184.5t-34.5 -232.5q0 -160 81.5 -259t257.5 -99q100 0 158 21.5t78 31.5l47 273h-250 l39 223h522l-114 -649q-23 -16 -66 -39t-104.5 -43.5t-141.5 -36t-178 -15.5q-162 0 -280.5 47.5t-196.5 127t-116 186t-38 227.5z" />
<glyph unicode="H" horiz-adv-x="1499" d="M78 0l241 1364h283l-94 -537h600l94 537h283l-244 -1364h-283l107 590h-598l-107 -590h-282z" />
<glyph unicode="I" horiz-adv-x="641" d="M88 0l244 1364h284l-243 -1364h-285z" />
<glyph unicode="J" horiz-adv-x="643" d="M-264 -383l88 233q12 -6 36.5 -12t57.5 -6q82 0 125 45t63 158l238 1329h285l-246 -1368q-37 -213 -153 -313.5t-302 -100.5q-72 0 -118 11.5t-74 23.5z" />
<glyph unicode="K" horiz-adv-x="1275" d="M80 0l244 1364h282l-106 -598l553 598h321l-608 -649l397 -715h-311l-369 670l-118 -670h-285z" />
<glyph unicode="L" horiz-adv-x="1013" d="M78 0l244 1364h284l-200 -1131h495l-39 -233h-784z" />
<glyph unicode="M" horiz-adv-x="1789" d="M8 0l426 1364h268l117 -868q8 -66 11.5 -126.5t7.5 -84.5h4q12 27 38.5 88t59.5 123l438 868h277l-62 -1364h-282l45 715q4 74 9 131t9 74h-4q-8 -16 -30.5 -70.5t-55.5 -122.5l-362 -727h-271l-92 721q-8 66 -13 124t-7 75h-4q-4 -16 -18.5 -76t-35.5 -129l-213 -715 h-260z" />
<glyph unicode="N" horiz-adv-x="1484" d="M74 0l243 1364h279l360 -727q41 -86 67 -150.5t30 -80.5h4q0 8 3 30.5t6 53t9 68.5t12 75l130 731h258l-244 -1364h-254l-383 770q-41 78 -62.5 137.5t-29.5 81.5h-4q-2 -16 -8.5 -77.5t-20.5 -133.5l-139 -778h-256z" />
<glyph unicode="O" horiz-adv-x="1538" d="M106 571q0 156 56.5 303.5t160 262t250 183.5t326.5 69q150 0 262.5 -47.5t187 -127t111.5 -187t37 -228.5q0 -158 -55.5 -306.5t-156.5 -263t-247.5 -184.5t-326.5 -70q-147 0 -260 47.5t-190 129t-116 190.5t-39 229zM406 575q0 -78 20 -144t60 -115.5t101.5 -78 t141.5 -28.5q113 0 201 50t147.5 133t90 187.5t30.5 215.5q0 76 -18.5 141t-57.5 114.5t-99 77t-144 27.5q-115 0 -203 -49t-148.5 -131t-91 -185.5t-30.5 -214.5z" />
<glyph unicode="P" horiz-adv-x="1193" d="M78 0l241 1364h429q100 0 184 -23.5t144.5 -69.5t94 -115t33.5 -157q0 -129 -45 -226t-127 -160.5t-195.5 -95.5t-250.5 -32h-140l-86 -485h-282zM487 705h131q154 0 224.5 71.5t70.5 192.5q0 84 -49 129t-164 45h-135z" />
<glyph unicode="Q" horiz-adv-x="1538" d="M106 571q0 156 56.5 303.5t160 262t250 183.5t326.5 69q150 0 262.5 -47.5t187 -127t111.5 -187t37 -228.5q0 -145 -46 -282.5t-133 -249t-212 -187.5t-281 -96q43 -72 100.5 -100.5t133.5 -28.5q72 0 125 21.5t76 37.5l75 -190q-41 -25 -118.5 -53.5t-190.5 -28.5 q-84 0 -158.5 18t-142.5 61t-128 114t-118 177q-92 33 -161.5 88.5t-116.5 129t-71 160.5t-24 181zM406 575q0 -78 20 -145.5t60 -118.5t100.5 -79.5t140.5 -28.5q115 0 203 51t147.5 135t90 189.5t30.5 216.5q0 76 -18.5 141t-57.5 114.5t-99 77t-144 27.5q-115 0 -203 -49 t-148.5 -131t-91 -185.5t-30.5 -214.5z" />
<glyph unicode="R" horiz-adv-x="1263" d="M80 0l244 1364h438q213 0 324.5 -88t111.5 -250q0 -96 -28.5 -170t-81 -125t-123 -83t-152.5 -46v-4q31 -25 62.5 -72t74.5 -139l187 -387h-303l-181 391q-25 51 -43 84t-35.5 52.5t-38 26.5t-47.5 7h-24l-100 -561h-285zM500 766h164q127 0 187 62.5t60 162.5 q0 78 -46 115t-146 37h-150z" />
<glyph unicode="S" horiz-adv-x="1005" d="M-23 127l156 195q16 -14 42 -34t60.5 -37.5t80.5 -29.5t106 -12q111 0 158 43t47 108q0 35 -12.5 62t-37 53.5t-64.5 58t-95 74.5q-47 39 -91 79t-79 88t-56.5 105.5t-21.5 131.5q0 94 35 164.5t96 117.5t144 71t182 24q80 0 139 -12.5t103 -30t75 -37t51 -35.5 l-135 -201q-35 29 -93 58.5t-149 29.5q-88 0 -130 -35.5t-42 -101.5q0 -33 12.5 -58.5t35 -51t57.5 -53t82 -64.5q49 -39 99 -79t89 -88t63.5 -108.5t24.5 -140.5q0 -88 -31.5 -163t-94 -128t-155.5 -84t-216 -31q-90 0 -161 16.5t-124 40t-90 49t-60 46.5z" />
<glyph unicode="T" horiz-adv-x="1089" d="M145 1126l41 238h1020l-41 -238h-362l-201 -1126h-285l201 1126h-373z" />
<glyph unicode="U" horiz-adv-x="1433" d="M162 308q-8 47 -9 98q0 64 13 137l143 821h285l-143 -811q-12 -68 -13 -121q0 -89 35 -139q55 -80 215 -80q76 0 131 19.5t95 60.5t66 103.5t42 146.5l145 821h260l-147 -840q-49 -276 -195.5 -412.5t-418.5 -136.5q-152 0 -257.5 40t-167 114.5t-79.5 178.5z" />
<glyph unicode="V" horiz-adv-x="1325" d="M178 1364h295l139 -817q6 -35 11.5 -73t9.5 -71.5t7 -58.5t3 -33h4q4 8 14.5 34t24.5 58.5t31.5 70.5t34.5 73l407 817h291l-727 -1364h-266z" />
<glyph unicode="W" horiz-adv-x="1832" d="M184 1364h287l45 -698l4 -86t4 -80t2 -65.5v-41.5h4q4 12 15.5 40t26 67t33 83t36.5 91l289 690h278l58 -705q8 -90 10 -165.5t4 -100.5h4q10 27 37 99.5t61 160.5l285 711h285l-602 -1364h-267l-57 745q-6 88 -9 170t-5 117h-4q-12 -35 -45 -116.5t-72 -170.5l-326 -745 h-260z" />
<glyph unicode="X" horiz-adv-x="1243" d="M-43 0l547 705l-287 659h303l180 -444l312 444h299l-506 -664l307 -700h-303l-199 489l-350 -489h-303z" />
<glyph unicode="Y" horiz-adv-x="1214" d="M180 1364h295l189 -590h2l376 590h293l-575 -850l-92 -514h-285l94 514z" />
<glyph unicode="Z" horiz-adv-x="1116" d="M-18 0l34 188l762 945h-569l43 231h928l-33 -184l-768 -949h618l-41 -231h-974z" />
<glyph unicode="[" horiz-adv-x="686" d="M-12 -330l315 1805h502l-37 -203h-246l-246 -1399h248l-37 -203h-499z" />
<glyph unicode="\" horiz-adv-x="876" d="M164 1475h248l325 -1805h-248z" />
<glyph unicode="]" horiz-adv-x="686" d="M-92 -330l35 203h245l246 1399h-248l37 203h502l-315 -1805h-502z" />
<glyph unicode="^" horiz-adv-x="1200" d="M115 590l540 774h185l268 -774h-238l-159 500l-340 -500h-256z" />
<glyph unicode="_" horiz-adv-x="866" d="M-158 -377l37 211h875l-39 -211h-873z" />
<glyph unicode="`" horiz-adv-x="1024" d="M305 1384h336l121 -276h-227z" />
<glyph unicode="a" horiz-adv-x="1136" d="M-63 0l622 1071h258l217 -1071h-276l-29 184h-420l-98 -184h-274zM418 385h278l-34 221q-6 37 -11.5 73t-9.5 64q-4 33 -6 64h-4q-14 -31 -29 -64q-12 -29 -29.5 -64.5t-35.5 -72.5z" />
<glyph unicode="b" horiz-adv-x="1026" d="M45 0l203 1071h381q74 0 136 -14.5t108.5 -45t73 -77.5t26.5 -113q0 -117 -66.5 -182.5t-169.5 -89.5v-2q82 -16 138.5 -67.5t56.5 -143.5q0 -86 -35 -149.5t-98.5 -105.5t-152.5 -61.5t-197 -19.5h-404zM344 197h127q104 0 151.5 37.5t47.5 107.5q0 55 -38 87t-116 32 h-123zM424 633h119q88 0 129 40t41 99q0 51 -33 78t-107 27h-102z" />
<glyph unicode="c" horiz-adv-x="1034" d="M61 438q0 129 48.5 248t136.5 209t214 143.5t279 53.5q127 0 204 -25t122 -57l-123 -197q-41 25 -92 40t-129 15q-84 0 -152.5 -32.5t-118 -89t-77 -132t-27.5 -161.5q0 -113 56.5 -180.5t175.5 -67.5q84 0 145 26.5t108 59.5l103 -193q-47 -37 -146.5 -76.5 t-242.5 -39.5q-127 0 -218 35.5t-150.5 98t-87.5 145.5t-28 177z" />
<glyph unicode="d" horiz-adv-x="1191" d="M45 0l201 1071h354q135 0 236.5 -31.5t169 -89t102.5 -137.5t35 -178q0 -129 -45 -244t-135.5 -202t-226.5 -138t-318 -51h-373zM352 215h117q195 0 293 113.5t98 300.5q0 113 -65.5 170t-206.5 57h-113z" />
<glyph unicode="e" horiz-adv-x="956" d="M55 0l199 1071h688l-39 -213h-424l-39 -211h381l-35 -194h-385l-47 -240h449l-41 -213h-707z" />
<glyph unicode="f" horiz-adv-x="913" d="M59 0l201 1071h670l-39 -215h-406l-43 -238h363l-37 -204h-365l-75 -414h-269z" />
<glyph unicode="g" horiz-adv-x="1171" d="M63 446q0 133 52.5 251t145.5 205t221 138.5t280 51.5q147 0 233 -27t129 -55l-127 -207q-41 25 -106.5 44t-151.5 19q-92 0 -164.5 -30.5t-124 -86t-78 -131t-26.5 -167.5q0 -117 63.5 -185.5t196.5 -68.5q63 0 107.5 11t64.5 19l33 183h-195l37 196h447l-99 -522 q-47 -31 -147 -66.5t-256 -35.5q-139 0 -239.5 36.5t-166 100t-97.5 148.5t-32 179z" />
<glyph unicode="h" horiz-adv-x="1263" d="M45 0l199 1071h268l-76 -407h449l76 407h268l-199 -1071h-268l84 442h-449l-82 -442h-270z" />
<glyph unicode="i" horiz-adv-x="565" d="M53 0l203 1071h268l-198 -1071h-273z" />
<glyph unicode="j" horiz-adv-x="552" d="M-258 -317l80 215q10 -4 32.5 -11.5t55.5 -7.5q63 0 97 33t48 117l195 1042h270l-203 -1079q-35 -180 -132 -261t-259 -81q-72 0 -114.5 11t-69.5 22z" />
<glyph unicode="k" horiz-adv-x="1118" d="M45 0l203 1071h266l-88 -473l446 473h306l-494 -508l309 -563h-288q-82 150 -146 266q-29 49 -54.5 97.5t-45.5 87.5q-23 45 -45 84l-99 -535h-270z" />
<glyph unicode="l" horiz-adv-x="884" d="M45 0l201 1071h268l-160 -856h416l-37 -215h-688z" />
<glyph unicode="m" horiz-adv-x="1490" d="M-4 0l352 1071h254l82 -649q8 -55 10 -104.5t4 -77.5h4q10 29 32 79t50 103l338 649h264l-49 -1071h-268l37 506q4 66 9 112t9 72h-4q-10 -25 -27.5 -71t-45.5 -105l-269 -514h-250l-63 512q-6 59 -9 107.5t-3 70.5h-4q-4 -23 -15.5 -73t-30.5 -111l-161 -506h-246z" />
<glyph unicode="n" horiz-adv-x="1259" d="M45 0l199 1071h264l264 -508q37 -70 57.5 -115t30.5 -73h2q4 29 10.5 74t16.5 104l96 518h244l-201 -1071h-237l-291 547q-33 59 -51.5 105t-28.5 75h-4q-2 -29 -7.5 -67.5t-17.5 -102.5l-104 -557h-242z" />
<glyph unicode="o" horiz-adv-x="1277" d="M63 451q0 123 48.5 237.5t135.5 204.5t209 144.5t271 54.5q123 0 217 -37t156.5 -100.5t95.5 -148.5t33 -179q0 -127 -47 -244t-133 -206t-208 -142t-274 -53q-121 0 -215 36.5t-158.5 101t-97.5 149.5t-33 182zM346 457q0 -109 60.5 -183.5t181.5 -74.5q86 0 152.5 35.5 t112.5 95t69.5 135.5t23.5 156q0 104 -57.5 177.5t-179.5 73.5q-86 0 -154 -34.5t-114 -93t-70.5 -133t-24.5 -154.5z" />
<glyph unicode="p" horiz-adv-x="1026" d="M45 0l201 1071h381q84 0 154.5 -20.5t121.5 -58.5t80 -94t29 -126q0 -106 -39 -185t-108.5 -130t-166 -76t-211.5 -25h-104l-68 -356h-270zM420 557h102q117 0 169 50t52 138q0 57 -38.5 91t-120.5 34h-107z" />
<glyph unicode="q" horiz-adv-x="1277" d="M63 451q0 123 48.5 237.5t135.5 204.5t209 144.5t271 54.5q123 0 217 -37t156.5 -100.5t95.5 -148.5t33 -179q0 -115 -38 -220.5t-108.5 -191.5t-171 -144.5t-225.5 -78.5q29 -49 72 -69.5t102 -20.5q53 0 94 16t60 27l65 -174q-29 -16 -96.5 -40t-161.5 -24 q-68 0 -130 15.5t-119.5 50t-108.5 94t-96 147.5q-147 51 -225.5 170t-78.5 267zM346 457q0 -55 14.5 -103.5t43 -84.5t74.5 -56t112 -20q86 0 152.5 36.5t111.5 97t68.5 137.5t23.5 157q0 104 -57.5 177.5t-179.5 73.5q-86 0 -154 -34.5t-114 -93t-70.5 -133t-24.5 -154.5z " />
<glyph unicode="r" horiz-adv-x="1069" d="M45 0l203 1071h381q186 0 280.5 -70.5t94.5 -203.5q0 -76 -24 -133.5t-65 -97.5t-97 -64.5t-120 -36.5v-4q53 -31 111 -158l143 -303h-282l-131 301q-35 74 -59.5 94.5t-63.5 20.5h-23l-78 -416h-270zM426 602h125q92 0 139 43t47 115q0 110 -142 110h-3h-115z" />
<glyph unicode="s" horiz-adv-x="849" d="M-29 90l127 189q31 -23 88.5 -51.5t143.5 -28.5q84 0 119.5 27.5t35.5 68.5q0 27 -18 48.5t-50 46t-73 53t-84 69.5q-63 57 -105 118.5t-42 149.5q0 76 29.5 134.5t81.5 97.5t123 59.5t155 20.5q68 0 121 -9.5t91 -24t64.5 -29.5t42.5 -28l-121 -188q-29 20 -77 43 t-117 23q-70 0 -100.5 -24t-30.5 -64q0 -45 49 -82t127 -93q39 -29 77 -60.5t65.5 -68t45 -79.5t17.5 -95q0 -158 -107.5 -244.5t-320.5 -86.5q-76 0 -135.5 12t-103.5 28.5t-73.5 36t-44.5 31.5z" />
<glyph unicode="t" horiz-adv-x="954" d="M96 850l39 221h881l-37 -221h-301l-160 -850h-270l162 850h-314z" />
<glyph unicode="u" horiz-adv-x="1189" d="M106 258q-7 39 -7 81q0 51 10 107l116 625h267l-115 -618q-9 -47 -8 -85q0 -64 24 -104q39 -62 162 -63q119 0 174 61.5t78 181.5l119 627h245l-120 -639q-45 -240 -169 -345t-345 -105q-131 0 -221.5 33.5t-142 95t-67.5 147.5z" />
<glyph unicode="v" horiz-adv-x="1122" d="M121 1071h276l107 -596q10 -55 15 -107.5t7 -78.5h4q10 29 33 81t51 105l314 596h274l-600 -1071h-252z" />
<glyph unicode="w" horiz-adv-x="1529" d="M123 1071h274l27 -502q4 -72 5 -127t1 -90h4q10 35 32.5 92.5t55.5 135.5l217 491h258l37 -498q4 -72 5 -132t1 -89h4q10 31 32 89.5t50 123.5l213 506h269l-498 -1071h-254l-33 549q-4 72 -4 132t-2 95h-4q-12 -35 -34.5 -93t-57.5 -134l-252 -549h-246z" />
<glyph unicode="x" horiz-adv-x="1050" d="M-57 0l450 557l-237 514h286q37 -92 68 -164l45 -112q10 -27 23 -52l239 328h275l-412 -526q18 -39 39 -84q16 -39 38.5 -88t47.5 -101q53 -121 125 -272h-289l-74 176l-73 176l-271 -352h-280z" />
<glyph unicode="y" horiz-adv-x="1021" d="M121 1071h280l142 -430l291 430h270l-471 -670l-78 -401h-270l77 403z" />
<glyph unicode="z" horiz-adv-x="946" d="M-27 0l33 174l596 680h-448l39 217h786l-35 -174l-596 -682h481l-38 -215h-818z" />
<glyph unicode="{" horiz-adv-x="813" d="M47 485l37 207q127 0 186.5 48t77.5 153l58 330q12 70 38.5 118t64.5 77.5t85 43t98 13.5h240l-37 -203h-125q-61 0 -88 -35t-37 -104l-51 -299q-20 -117 -80.5 -175.5t-146.5 -80.5v-5q76 -25 115.5 -81t21.5 -164l-55 -318q-14 -74 0 -105.5t77 -31.5h125l-35 -203 h-210q-57 0 -103.5 18.5t-77 54.5t-43 86t-2.5 116l60 329q18 98 -25 152.5t-168 58.5z" />
<glyph unicode="|" horiz-adv-x="577" d="M172 -512v2048h234v-2048h-234z" />
<glyph unicode="}" horiz-adv-x="813" d="M-92 -330l35 203h125q63 0 88.5 35t38.5 104l55 318q18 113 77.5 169t147.5 83v4q-76 25 -116 84t-21 170l51 295q14 74 0 105.5t-76 31.5h-127l37 203h223q49 0 93.5 -17.5t74 -52.5t43 -85t0.5 -118l-55 -309q-16 -96 30 -149.5t163 -57.5l-37 -207q-117 -2 -180.5 -51 t-81.5 -154l-62 -352q-25 -139 -100.5 -195.5t-186.5 -56.5h-239z" />
<glyph unicode="~" horiz-adv-x="1196" d="M82 535q20 20 51 45.5t71 47t89 37t104 15.5q70 0 117 -18.5t90 -41t90 -41t113 -18.5q61 0 109.5 27.5t76.5 56.5l121 -160q-23 -25 -54.5 -50t-72.5 -46.5t-89 -36t-103 -14.5q-74 0 -125.5 18.5t-94.5 41t-87 41t-103 18.5q-70 0 -112 -30t-66 -54z" />
<glyph unicode="&#xa1;" horiz-adv-x="495" d="M-4 0l188 690h189l-80 -690h-297zM160 938q0 59 43 102t112 43q68 0 111 -43t43 -102t-43 -102t-111 -43q-70 0 -112.5 43t-42.5 102z" />
<glyph unicode="&#xa2;" horiz-adv-x="874" d="M45 375q0 121 34 224t92 184t139 136.5t173 81.5l39 226h226q-10 -57 -19 -103q-4 -20 -6 -37.5t-6 -33.5q-4 -18 -6 -33q72 -6 115.5 -23.5t72.5 -35.5l-106 -201q-27 16 -63 30.5t-101 14.5q-61 0 -117.5 -27.5t-99.5 -80t-70 -126t-27 -165.5q0 -111 43 -161t121 -50 q68 0 118 30.5t79 55.5l104 -179q-35 -33 -99.5 -67.5t-152.5 -50.5l-41 -236h-225l43 244q-127 35 -193.5 135t-66.5 248z" />
<glyph unicode="&#xa3;" horiz-adv-x="974" d="M8 0l31 174q113 57 178.5 154.5t81.5 195.5q2 6 2 13.5t2 13.5h-203l33 199h176q0 57 3 117.5t14 127.5q68 393 475 394q115 0 179 -23t99 -45l-112 -203q-27 16 -67 33.5t-105 17.5q-78 0 -127.5 -47t-69.5 -155q-10 -59 -13 -111.5t-5 -105.5h292l-34 -199h-273 q0 -8 -1 -14.5t-3 -14.5q-18 -113 -71.5 -188.5t-108.5 -116.5h475l-39 -217h-809z" />
<glyph unicode="&#xa4;" horiz-adv-x="1144" d="M37 428l33 188h114q2 29 6.5 59t8.5 58h-109l33 189h127q41 104 103.5 190t145.5 147.5t185 95.5t225 34q72 0 125 -7.5t93 -19.5t71 -27.5t57 -34.5l-141 -210q-35 23 -87 43t-144 20q-117 0 -200 -63.5t-134 -167.5h328l-33 -189h-355q-4 -29 -8 -58.5t-6 -58.5h348 l-32 -188h-314q16 -100 76.5 -157.5t177.5 -57.5q80 0 144.5 30.5t107.5 59.5l84 -215q-59 -41 -149.5 -77t-231.5 -36q-121 0 -211 35t-150.5 96.5t-95 144.5t-45.5 177h-147z" />
<glyph unicode="&#xa5;" horiz-adv-x="1200" d="M82 174l35 191h329l21 118h-330l33 189h248l-240 692h289l188 -602h2l379 602h289l-465 -692h252l-35 -189h-329l-21 -118h330l-33 -191h-332l-30 -174h-281l31 174h-330z" />
<glyph unicode="&#xa6;" d="M143 -430v1905h1905v-1905h-1905zM295 -276h1599v1599h-1599v-1599zM756 0v1059h162v-494l403 494h186l-411 -496l436 -563h-199l-415 537v-537h-162z" />
<glyph unicode="&#xa7;" horiz-adv-x="888" d="M-39 -233l119 188q20 -16 59 -33.5t99 -17.5q76 0 119.5 38t43.5 107q0 59 -50 121.5t-110.5 136.5t-110.5 160t-50 195t62.5 178t154.5 114q-20 41 -32.5 84t-12.5 90q0 88 32.5 158t89 117t132.5 71.5t160 24.5q109 0 169 -20.5t97 -44.5l-111 -185q-16 14 -54 28.5 t-97 14.5q-68 0 -107 -36.5t-39 -104.5q0 -41 23.5 -81t57.5 -83t75 -90t74.5 -100.5t57.5 -114.5t24 -135q0 -109 -58.5 -183.5t-148.5 -127.5q23 -41 34 -82t11 -88q0 -96 -34 -167t-92.5 -117t-138 -69.5t-173.5 -23.5q-111 0 -178.5 27.5t-96.5 50.5zM340 686 q0 -55 42 -114.5t105 -137.5q8 -10 15.5 -19.5t15.5 -19.5q29 23 43 51.5t14 69.5q0 53 -48 122t-119 157q-4 4 -6.5 7t-6.5 7q-55 -45 -55 -123z" />
<glyph unicode="&#xa8;" horiz-adv-x="1024" d="M285 1257q0 59 41 100.5t106 41.5q66 0 106 -41t40 -101q0 -59 -41.5 -100t-104.5 -41q-66 0 -106.5 41t-40.5 100zM713 1257q0 59 40 100.5t105 41.5q66 0 107 -41t41 -101q0 -59 -41 -100t-107 -41t-105.5 41t-39.5 100z" />
<glyph unicode="&#xa9;" horiz-adv-x="1656" d="M115 735q0 158 59 297t161.5 242.5t240 164t292.5 60.5q156 0 294 -60.5t240.5 -164t162 -242.5t59.5 -297t-59.5 -297t-162 -242.5t-240.5 -164t-294 -60.5t-293 60.5t-239.5 164t-161.5 243t-59 296.5zM281 735q0 -137 44 -248.5t122.5 -191.5t186 -123t234.5 -43 t234.5 43t186.5 123t123 191.5t44 248.5q0 135 -44 247t-123 191.5t-186.5 123.5t-234.5 44t-234.5 -44t-186 -123.5t-122.5 -191.5t-44 -247zM436 735q0 98 35 182t95.5 145.5t142.5 96.5t178 35q57 0 103 -10t83 -26.5t64.5 -36t48.5 -38.5l-109 -153q-27 20 -69.5 44.5 t-114.5 24.5q-55 0 -99 -20.5t-74 -56t-46.5 -82.5t-16.5 -101q0 -59 18.5 -109t50.5 -87t76 -57.5t97 -20.5q78 0 126 32.5t77 57.5l100 -147q-18 -18 -48 -41t-70 -43.5t-90 -34t-111 -13.5q-96 0 -178 35t-141.5 96.5t-93.5 145.5t-34 182z" />
<glyph unicode="&#xaa;" horiz-adv-x="761" d="M117 872q0 113 34.5 208.5t95 164t144.5 106.5t182 38t162 -16.5t90 -26.5l-59 -324q-25 -141 -33 -230.5t-8 -129.5h-195q4 41 7.5 86t13.5 86h-4q-41 -82 -101.5 -135.5t-140.5 -53.5q-82 0 -135 59.5t-53 167.5zM326 901q0 -35 13 -59.5t46 -24.5q127 0 217 381l6 31 q-10 4 -27.5 6t-35.5 2q-43 0 -82 -23.5t-70 -67.5t-49 -106.5t-18 -138.5z" />
<glyph unicode="&#xab;" horiz-adv-x="1073" d="M53 498l309 399h287l-319 -408l164 -380h-269zM504 498l309 399h285l-318 -408l164 -380h-268z" />
<glyph unicode="&#xac;" horiz-adv-x="1110" d="M45 0l203 1071h266l-88 -473l446 473h306l-494 -508l309 -563h-288q-82 150 -146 266q-29 49 -54.5 97.5t-45.5 87.5q-23 45 -45 84l-99 -535h-270z" />
<glyph unicode="&#xad;" horiz-adv-x="659" d="M94 467l37 221h463l-39 -221h-461z" />
<glyph unicode="&#xae;" horiz-adv-x="1656" d="M115 735q0 158 59 297t161.5 242.5t240 164t292.5 60.5q156 0 294 -60.5t240.5 -164t162 -242.5t59.5 -297t-59.5 -297t-162 -242.5t-240.5 -164t-294 -60.5t-293 60.5t-239.5 164t-161.5 243t-59 296.5zM281 735q0 -137 44 -248.5t122.5 -191.5t186 -123t234.5 -43 t234.5 43t186.5 123t123 191.5t44 248.5q0 135 -44 247t-123 191.5t-186.5 123.5t-234.5 44t-234.5 -44t-186 -123.5t-122.5 -191.5t-44 -247zM580 319v855h299q147 0 225 -68t78 -182q0 -102 -55.5 -156.5t-139.5 -71.5q20 -16 45 -44.5t55 -82.5l154 -250h-209l-160 271 q-29 47 -49 63.5t-55 16.5v-351h-188zM768 801h76q61 0 104 23.5t43 88.5q0 53 -30.5 84t-102.5 31h-90v-227z" />
<glyph unicode="&#xaf;" horiz-adv-x="1024" d="M340 1151l35 195h571l-35 -195h-571z" />
<glyph unicode="&#xb0;" horiz-adv-x="694" d="M158 1100q0 61 22.5 113.5t61.5 91t91 61.5t111 23t111.5 -23t91.5 -61.5t61.5 -91t22.5 -113.5q0 -59 -22.5 -111.5t-61.5 -91.5t-91.5 -61.5t-111.5 -22.5t-111 22.5t-91 61.5t-61.5 91t-22.5 112zM322 1100q0 -57 33.5 -96t88.5 -39t89 38.5t34 96.5q0 59 -33.5 97 t-89.5 38q-55 0 -88.5 -38t-33.5 -97z" />
<glyph unicode="&#xb1;" horiz-adv-x="2691" d="M59 0l201 1071h670l-39 -215h-406l-43 -238h363l-37 -204h-365l-75 -414h-269zM967 0l200 1071h670l-39 -215h-405l-43 -238h362l-37 -204h-364l-76 -414h-268zM1860 0l200 1071h269l-160 -856h416l-37 -215h-688z" />
<glyph unicode="&#xb2;" d="M143 -430v1905h1905v-1905h-1905zM295 -276h1599v1599h-1599v-1599zM756 0v1059h162v-494l403 494h186l-411 -496l436 -563h-199l-415 537v-537h-162z" />
<glyph unicode="&#xb3;" d="M143 -430v1905h1905v-1905h-1905zM295 -276h1599v1599h-1599v-1599zM756 0v1059h162v-494l403 494h186l-411 -496l436 -563h-199l-415 537v-537h-162z" />
<glyph unicode="&#xb4;" horiz-adv-x="1024" d="M332 1108l215 276h348l-328 -276h-235z" />
<glyph unicode="&#xb6;" horiz-adv-x="1310" d="M133 891q0 106 39 194.5t105.5 149.5t154.5 95t189 34h778l-37 -213h-150l-266 -1513h-233l266 1513h-156l-266 -1513h-235l155 878q-74 4 -137.5 33t-109.5 78t-71.5 116.5t-25.5 147.5z" />
<glyph unicode="&#xb7;" horiz-adv-x="569" d="M119 594q0 72 51 121t125 49q35 0 66.5 -13.5t55 -36t38 -53t14.5 -67.5q0 -72 -51 -121t-123 -49q-74 0 -125 49t-51 121z" />
<glyph unicode="&#xb8;" horiz-adv-x="1024" d="M188 -440l45 121q14 -6 37 -13.5t60 -7.5q43 0 69.5 17.5t26.5 54.5q0 25 -12.5 41t-33 24t-47 10.5t-52.5 -0.5l73 199h158l-45 -119q66 -14 106.5 -55t40.5 -111q0 -86 -69.5 -139t-186.5 -53q-66 0 -107.5 10t-62.5 21z" />
<glyph unicode="&#xb9;" d="M143 -430v1905h1905v-1905h-1905zM295 -276h1599v1599h-1599v-1599zM756 0v1059h162v-494l403 494h186l-411 -496l436 -563h-199l-415 537v-537h-162z" />
<glyph unicode="&#xba;" horiz-adv-x="761" d="M127 940q0 92 30.5 174t85 142.5t128 96.5t161.5 36q137 0 212 -83t75 -214q0 -98 -29.5 -181.5t-83 -141.5t-128 -91t-164.5 -33q-135 0 -211 83t-76 212zM332 948q0 -72 24.5 -109.5t79.5 -37.5q45 0 79 25.5t56.5 67.5t33.5 92t11 99q0 72 -23.5 109t-78.5 37 q-43 0 -78 -26.5t-57.5 -67.5t-34.5 -91.5t-12 -97.5z" />
<glyph unicode="&#xbb;" horiz-adv-x="1073" d="M-20 109l315 407l-164 381h268l172 -391l-307 -397h-284zM428 109l315 407l-163 381h268l172 -391l-305 -397h-287z" />
<glyph unicode="&#xbc;" d="M143 -430v1905h1905v-1905h-1905zM295 -276h1599v1599h-1599v-1599zM756 0v1059h162v-494l403 494h186l-411 -496l436 -563h-199l-415 537v-537h-162z" />
<glyph unicode="&#xbd;" d="M143 -430v1905h1905v-1905h-1905zM295 -276h1599v1599h-1599v-1599zM756 0v1059h162v-494l403 494h186l-411 -496l436 -563h-199l-415 537v-537h-162z" />
<glyph unicode="&#xbe;" d="M143 -430v1905h1905v-1905h-1905zM295 -276h1599v1599h-1599v-1599zM756 0v1059h162v-494l403 494h186l-411 -496l436 -563h-199l-415 537v-537h-162z" />
<glyph unicode="&#xbf;" horiz-adv-x="704" d="M-4 229q0 61 20.5 106.5t53 80.5t72.5 60.5t81 45.5q53 29 81 54.5t38 68.5l10 53h217l-16 -80q-10 -78 -45 -118.5t-92 -73.5q-31 -16 -57.5 -31.5t-46 -33t-31 -38t-11.5 -47.5q0 -80 115 -79q47 0 81 10t56 22l82 -184q-57 -29 -121.5 -43t-154.5 -14 q-86 0 -148.5 19.5t-103.5 53t-60.5 77.5t-19.5 91zM356 944q0 59 43 103.5t111 44.5q66 0 110 -44t44 -104q0 -59 -44 -101t-110 -42q-68 0 -111 42t-43 101z" />
<glyph unicode="&#xc0;" horiz-adv-x="1351" d="M-59 0l757 1364h275l258 -1364h-299l-39 256h-526l-134 -256h-292zM479 1753h336l121 -276h-227zM487 487h371l-51 332q-8 47 -12 90t-9 78q-4 39 -8 76h-4q-14 -37 -33 -76q-16 -35 -36.5 -78t-42.5 -90z" />
<glyph unicode="&#xc1;" horiz-adv-x="1351" d="M-59 0l757 1364h275l258 -1364h-299l-39 256h-526l-134 -256h-292zM487 487h371l-51 332q-8 47 -12 90t-9 78q-4 39 -8 76h-4q-14 -37 -33 -76q-16 -35 -36.5 -78t-42.5 -90zM766 1477l215 276h348l-328 -276h-235z" />
<glyph unicode="&#xc2;" horiz-adv-x="1351" d="M-59 0l757 1364h275l258 -1364h-299l-39 256h-526l-134 -256h-292zM420 1479l311 326h203l193 -326h-213l-107 141l-153 -141h-234zM487 487h371l-51 332q-8 47 -12 90t-9 78q-4 39 -8 76h-4q-14 -37 -33 -76q-16 -35 -36.5 -78t-42.5 -90z" />
<glyph unicode="&#xc3;" horiz-adv-x="1351" d="M-59 0l757 1364h275l258 -1364h-299l-39 256h-526l-134 -256h-292zM447 1606q18 27 43.5 53.5t56.5 49t67 37t77 14.5q45 0 74.5 -11.5t54 -25t47 -24.5t53.5 -11q41 0 72.5 21.5t48.5 39.5l100 -106q-18 -27 -45 -54.5t-58.5 -50t-68.5 -37t-76 -14.5q-45 0 -74.5 11.5 t-54 24.5t-48 24.5t-54.5 11.5q-35 0 -66.5 -21.5t-50.5 -38.5zM487 487h371l-51 332q-8 47 -12 90t-9 78q-4 39 -8 76h-4q-14 -37 -33 -76q-16 -35 -36.5 -78t-42.5 -90z" />
<glyph unicode="&#xc4;" horiz-adv-x="1351" d="M-59 0l757 1364h275l258 -1364h-299l-39 256h-526l-134 -256h-292zM469 1626q0 59 41 100.5t106 41.5q66 0 106 -41t40 -101q0 -59 -41.5 -100t-104.5 -41q-66 0 -106.5 41t-40.5 100zM487 487h371l-51 332q-8 47 -12 90t-9 78q-4 39 -8 76h-4q-14 -37 -33 -76 q-16 -35 -36.5 -78t-42.5 -90zM897 1626q0 59 40 100.5t105 41.5q66 0 107 -41t41 -101q0 -59 -41 -100t-107 -41t-105.5 41t-39.5 100z" />
<glyph unicode="&#xc5;" horiz-adv-x="1351" d="M-59 0l757 1364h275l258 -1364h-299l-39 256h-526l-134 -256h-292zM487 487h371l-51 332q-8 47 -12 90t-9 78q-4 39 -8 76h-4q-14 -37 -33 -76q-16 -35 -36.5 -78t-42.5 -90zM590 1690q0 47 18.5 87t49 69.5t70.5 46t83 16.5t83 -16.5t70.5 -45t49 -68.5t18.5 -87 q0 -49 -18.5 -89t-49 -69t-70.5 -45t-83 -16t-83 16t-70.5 45t-49 68.5t-18.5 87.5zM719 1692q0 -41 24.5 -73t67.5 -32q45 0 68.5 32t23.5 73q0 43 -23.5 72.5t-68.5 29.5q-43 0 -67.5 -29.5t-24.5 -72.5z" />
<glyph unicode="&#xc6;" horiz-adv-x="1734" d="M-133 0l1005 1364h885l-43 -238h-489l-58 -307h435l-41 -225h-431l-65 -356h506l-43 -238h-785l50 272h-433l-194 -272h-299zM522 500h309q8 43 17 90q8 41 16 92t19 104q23 127 51 289z" />
<glyph unicode="&#xc7;" horiz-adv-x="1257" d="M102 555q0 168 58.5 319.5t165 265t255 181.5t330.5 68q156 0 248 -30t148 -71l-140 -213q-49 35 -113.5 54.5t-158.5 19.5q-109 0 -200 -45t-155.5 -124t-100.5 -184.5t-36 -226.5q0 -158 75 -256t235 -98q104 0 179 36t134 83l115 -207q-29 -25 -71 -51.5t-97 -48 t-122 -36t-140 -16.5l-33 -88q66 -14 106.5 -55t40.5 -111q0 -86 -69.5 -139t-186.5 -53q-66 0 -107.5 10t-62.5 21l45 121q14 -6 37 -13.5t60 -7.5q43 0 69.5 17.5t26.5 54.5q0 25 -12.5 41t-33 24t-47 10.5t-52.5 -0.5l65 179q-117 18 -203 69t-142 127t-83 171.5 t-27 201.5z" />
<glyph unicode="&#xc8;" horiz-adv-x="1069" d="M78 0l241 1364h773l-43 -238h-490l-55 -307h432l-41 -225h-430l-66 -356h506l-43 -238h-784zM395 1753h336l121 -276h-227z" />
<glyph unicode="&#xc9;" horiz-adv-x="1069" d="M78 0l241 1364h773l-43 -238h-490l-55 -307h432l-41 -225h-430l-66 -356h506l-43 -238h-784zM645 1477l215 276h348l-328 -276h-235z" />
<glyph unicode="&#xca;" horiz-adv-x="1069" d="M78 0l241 1364h773l-43 -238h-490l-55 -307h432l-41 -225h-430l-66 -356h506l-43 -238h-784zM344 1479l311 326h203l193 -326h-213l-107 141l-153 -141h-234z" />
<glyph unicode="&#xcb;" horiz-adv-x="1069" d="M78 0l241 1364h773l-43 -238h-490l-55 -307h432l-41 -225h-430l-66 -356h506l-43 -238h-784zM365 1626q0 59 41 100.5t106 41.5q66 0 106 -41t40 -101q0 -59 -41.5 -100t-104.5 -41q-66 0 -106.5 41t-40.5 100zM793 1626q0 59 40 100.5t105 41.5q66 0 107 -41t41 -101 q0 -59 -41 -100t-107 -41t-105.5 41t-39.5 100z" />
<glyph unicode="&#xcc;" horiz-adv-x="641" d="M88 0l244 1364h284l-243 -1364h-285zM121 1753h336l121 -276h-227z" />
<glyph unicode="&#xcd;" horiz-adv-x="641" d="M88 0l244 1364h284l-243 -1364h-285zM404 1477l215 276h348l-328 -276h-235z" />
<glyph unicode="&#xce;" horiz-adv-x="641" d="M80 1479l311 326h203l193 -326h-213l-107 141l-153 -141h-234zM88 0l244 1364h284l-243 -1364h-285z" />
<glyph unicode="&#xcf;" horiz-adv-x="641" d="M88 0l244 1364h284l-243 -1364h-285zM107 1626q0 59 41 100.5t106 41.5q66 0 106 -41t40 -101q0 -59 -41.5 -100t-104.5 -41q-66 0 -106.5 41t-40.5 100zM535 1626q0 59 40 100.5t105 41.5q66 0 107 -41t41 -101q0 -59 -41 -100t-107 -41t-105.5 41t-39.5 100z" />
<glyph unicode="&#xd0;" horiz-adv-x="1433" d="M72 592l34 203h132l100 569h401q166 0 290 -39t206 -109.5t122 -171t40 -223.5q0 -164 -53.5 -313.5t-162 -262t-271 -179t-382.5 -66.5h-432l105 592h-129zM422 231h158q127 0 224 43t161.5 120t97.5 183.5t33 233.5q0 164 -90.5 243t-282.5 79h-141l-60 -338h211 l-37 -203h-211z" />
<glyph unicode="&#xd1;" horiz-adv-x="1484" d="M74 0l243 1364h279l360 -727q41 -86 67 -150.5t30 -80.5h4q0 8 3 30.5t6 53t9 68.5t12 75l130 731h258l-244 -1364h-254l-383 770q-41 78 -62.5 137.5t-29.5 81.5h-4q-2 -16 -8.5 -77.5t-20.5 -133.5l-139 -778h-256zM541 1606q18 27 43.5 53.5t56.5 49t67 37t77 14.5 q45 0 74.5 -11.5t54 -25t47 -24.5t53.5 -11q41 0 72.5 21.5t48.5 39.5l100 -106q-18 -27 -45 -54.5t-58.5 -50t-68.5 -37t-76 -14.5q-45 0 -74.5 11.5t-54 24.5t-48 24.5t-54.5 11.5q-35 0 -66.5 -21.5t-50.5 -38.5z" />
<glyph unicode="&#xd2;" horiz-adv-x="1538" d="M106 571q0 156 56.5 303.5t160 262t250 183.5t326.5 69q150 0 262.5 -47.5t187 -127t111.5 -187t37 -228.5q0 -158 -55.5 -306.5t-156.5 -263t-247.5 -184.5t-326.5 -70q-147 0 -260 47.5t-190 129t-116 190.5t-39 229zM406 575q0 -78 20 -144t60 -115.5t101.5 -78 t141.5 -28.5q113 0 201 50t147.5 133t90 187.5t30.5 215.5q0 76 -18.5 141t-57.5 114.5t-99 77t-144 27.5q-115 0 -203 -49t-148.5 -131t-91 -185.5t-30.5 -214.5zM563 1753h336l121 -276h-227z" />
<glyph unicode="&#xd3;" horiz-adv-x="1538" d="M106 571q0 156 56.5 303.5t160 262t250 183.5t326.5 69q150 0 262.5 -47.5t187 -127t111.5 -187t37 -228.5q0 -158 -55.5 -306.5t-156.5 -263t-247.5 -184.5t-326.5 -70q-147 0 -260 47.5t-190 129t-116 190.5t-39 229zM406 575q0 -78 20 -144t60 -115.5t101.5 -78 t141.5 -28.5q113 0 201 50t147.5 133t90 187.5t30.5 215.5q0 76 -18.5 141t-57.5 114.5t-99 77t-144 27.5q-115 0 -203 -49t-148.5 -131t-91 -185.5t-30.5 -214.5zM836 1477l215 276h348l-328 -276h-235z" />
<glyph unicode="&#xd4;" horiz-adv-x="1538" d="M106 571q0 156 56.5 303.5t160 262t250 183.5t326.5 69q150 0 262.5 -47.5t187 -127t111.5 -187t37 -228.5q0 -158 -55.5 -306.5t-156.5 -263t-247.5 -184.5t-326.5 -70q-147 0 -260 47.5t-190 129t-116 190.5t-39 229zM406 575q0 -78 20 -144t60 -115.5t101.5 -78 t141.5 -28.5q113 0 201 50t147.5 133t90 187.5t30.5 215.5q0 76 -18.5 141t-57.5 114.5t-99 77t-144 27.5q-115 0 -203 -49t-148.5 -131t-91 -185.5t-30.5 -214.5zM516 1479l311 326h203l193 -326h-213l-107 141l-153 -141h-234z" />
<glyph unicode="&#xd5;" horiz-adv-x="1538" d="M106 571q0 156 56.5 303.5t160 262t250 183.5t326.5 69q150 0 262.5 -47.5t187 -127t111.5 -187t37 -228.5q0 -158 -55.5 -306.5t-156.5 -263t-247.5 -184.5t-326.5 -70q-147 0 -260 47.5t-190 129t-116 190.5t-39 229zM406 575q0 -78 20 -144t60 -115.5t101.5 -78 t141.5 -28.5q113 0 201 50t147.5 133t90 187.5t30.5 215.5q0 76 -18.5 141t-57.5 114.5t-99 77t-144 27.5q-115 0 -203 -49t-148.5 -131t-91 -185.5t-30.5 -214.5zM578 1606q18 27 43.5 53.5t56.5 49t67 37t77 14.5q45 0 74.5 -11.5t54 -25t47 -24.5t53.5 -11 q41 0 72.5 21.5t48.5 39.5l100 -106q-18 -27 -45 -54.5t-58.5 -50t-68.5 -37t-76 -14.5q-45 0 -74.5 11.5t-54 24.5t-48 24.5t-54.5 11.5q-35 0 -66.5 -21.5t-50.5 -38.5z" />
<glyph unicode="&#xd6;" horiz-adv-x="1538" d="M106 571q0 156 56.5 303.5t160 262t250 183.5t326.5 69q150 0 262.5 -47.5t187 -127t111.5 -187t37 -228.5q0 -158 -55.5 -306.5t-156.5 -263t-247.5 -184.5t-326.5 -70q-147 0 -260 47.5t-190 129t-116 190.5t-39 229zM406 575q0 -78 20 -144t60 -115.5t101.5 -78 t141.5 -28.5q113 0 201 50t147.5 133t90 187.5t30.5 215.5q0 76 -18.5 141t-57.5 114.5t-99 77t-144 27.5q-115 0 -203 -49t-148.5 -131t-91 -185.5t-30.5 -214.5zM568 1626q0 59 41 100.5t106 41.5q66 0 106 -41t40 -101q0 -59 -41.5 -100t-104.5 -41q-66 0 -106.5 41 t-40.5 100zM996 1626q0 59 40 100.5t105 41.5q66 0 107 -41t41 -101q0 -59 -41 -100t-107 -41t-105.5 41t-39.5 100z" />
<glyph unicode="&#xd7;" d="M143 -430v1905h1905v-1905h-1905zM295 -276h1599v1599h-1599v-1599zM756 0v1059h162v-494l403 494h186l-411 -496l436 -563h-199l-415 537v-537h-162z" />
<glyph unicode="&#xd8;" horiz-adv-x="1538" d="M45 -31l191 217q-61 78 -93 176.5t-32 208.5q0 156 56 303.5t159.5 262t250 183.5t326.5 69q98 0 179 -20.5t147 -57.5l172 194l145 -127q-49 -55 -86 -96q-16 -18 -30.5 -34.5t-26.5 -30.5q-15 -17 -27 -31q63 -78 95 -177.5t32 -209.5q0 -158 -55 -306.5t-157.5 -263 t-249 -184.5t-326.5 -70q-98 0 -181 21.5t-151 62.5l-193 -219zM408 575q-1 -96 30 -176l312 357q59 66 114.5 130t100.5 113q53 57 98 111q-35 23 -80 36t-100 13q-115 0 -203 -49t-148.5 -131t-92 -187.5t-31.5 -216.5zM549 258q78 -53 186 -53q113 0 201 50t147.5 133 t90 189.5t30.5 217.5q1 96 -30 174q-45 -53 -99 -111q-45 -49 -100 -113.5t-115 -130.5z" />
<glyph unicode="&#xd9;" horiz-adv-x="1433" d="M161.5 307.5q-18.5 104.5 4.5 235.5l143 821h285l-143 -811q-33 -180 22 -260t215 -80q76 0 131 19.5t95 60.5t66 103.5t42 146.5l145 821h260l-147 -840q-49 -276 -195.5 -412.5t-418.5 -136.5q-152 0 -257.5 40t-167 114t-80 178.5zM536 1753h336l121 -276h-227z" />
<glyph unicode="&#xda;" horiz-adv-x="1433" d="M161.5 307.5q-18.5 104.5 4.5 235.5l143 821h285l-143 -811q-33 -180 22 -260t215 -80q76 0 131 19.5t95 60.5t66 103.5t42 146.5l145 821h260l-147 -840q-49 -276 -195.5 -412.5t-418.5 -136.5q-152 0 -257.5 40t-167 114t-80 178.5zM766 1477l215 276h348l-328 -276 h-235z" />
<glyph unicode="&#xdb;" horiz-adv-x="1433" d="M161.5 307.5q-18.5 104.5 4.5 235.5l143 821h285l-143 -811q-33 -180 22 -260t215 -80q76 0 131 19.5t95 60.5t66 103.5t42 146.5l145 821h260l-147 -840q-49 -276 -195.5 -412.5t-418.5 -136.5q-152 0 -257.5 40t-167 114t-80 178.5zM498 1479l311 326h203l193 -326 h-213l-107 141l-153 -141h-234z" />
<glyph unicode="&#xdc;" horiz-adv-x="1433" d="M161.5 307.5q-18.5 104.5 4.5 235.5l143 821h285l-143 -811q-33 -180 22 -260t215 -80q76 0 131 19.5t95 60.5t66 103.5t42 146.5l145 821h260l-147 -840q-49 -276 -195.5 -412.5t-418.5 -136.5q-152 0 -257.5 40t-167 114t-80 178.5zM504 1626q0 59 41 100.5t106 41.5 q66 0 106 -41t40 -101q0 -59 -41.5 -100t-104.5 -41q-66 0 -106.5 41t-40.5 100zM932 1626q0 59 40 100.5t105 41.5q66 0 107 -41t41 -101q0 -59 -41 -100t-107 -41t-105.5 41t-39.5 100z" />
<glyph unicode="&#xdd;" horiz-adv-x="1214" d="M180 1364h295l189 -590h2l376 590h293l-575 -850l-92 -514h-285l94 514zM645 1477l215 276h348l-328 -276h-235z" />
<glyph unicode="&#xde;" horiz-adv-x="1198" d="M78 0l241 1364h283l-37 -223h148q100 0 183 -23.5t143.5 -70t94 -115t33.5 -156.5q0 -129 -45 -226t-126 -160.5t-194.5 -95.5t-250.5 -32h-143l-48 -262h-282zM449 481h135q154 0 224.5 72t70.5 192q0 84 -49.5 129.5t-163.5 45.5h-140z" />
<glyph unicode="&#xdf;" horiz-adv-x="1689" d="M-31 92l131 187q27 -20 82.5 -50t145.5 -30q84 0 120.5 28.5t36.5 71.5q0 25 -19.5 46.5t-51 46t-71.5 53t-83 67.5q-59 55 -103 117.5t-44 150.5q0 76 29.5 134.5t81.5 97.5t124 59.5t156 20.5q70 0 121 -9.5t90 -24t65.5 -29.5t44.5 -30l-125 -184q-29 20 -77 42 t-117 22q-70 0 -100.5 -24t-30.5 -64q0 -23 13 -42.5t37 -40t55.5 -42t70.5 -50.5q41 -29 78 -61.5t65.5 -69t45 -81t16.5 -95.5q0 -154 -109.5 -240.5t-322.5 -86.5q-74 0 -132.5 12t-101.5 28.5t-72.5 36t-48.5 33.5zM815 92l129 187q27 -20 83 -50t147 -30 q84 0 119.5 28.5t35.5 71.5q0 25 -19.5 46.5t-50 46t-71.5 53t-84 67.5q-59 55 -102.5 117.5t-43.5 150.5q0 76 30 134.5t82 97.5t124 59.5t156 20.5q68 0 120 -9.5t89.5 -24t65.5 -29.5t46 -30l-125 -184q-29 20 -78 42t-118 22q-131 0 -131 -88q0 -47 50 -82t128 -93 q39 -29 76.5 -61.5t65.5 -69t45.5 -81t17.5 -95.5q0 -154 -111 -240.5t-324 -86.5q-74 0 -132 12t-101 28.5t-71.5 36t-47.5 33.5z" />
<glyph unicode="&#xe0;" horiz-adv-x="1136" d="M-63 0l622 1071h258l217 -1071h-276l-29 184h-420l-98 -184h-274zM352 1466h336l121 -276h-227zM418 385h278l-34 221q-6 37 -11.5 73t-9.5 64q-4 33 -6 64h-4q-14 -31 -29 -64q-12 -29 -29.5 -64.5t-35.5 -72.5z" />
<glyph unicode="&#xe1;" horiz-adv-x="1136" d="M-63 0l622 1071h258l217 -1071h-276l-29 184h-420l-98 -184h-274zM418 385h278l-34 221q-6 37 -11.5 73t-9.5 64q-4 33 -6 64h-4q-14 -31 -29 -64q-12 -29 -29.5 -64.5t-35.5 -72.5zM582 1190l215 276h348l-328 -276h-235z" />
<glyph unicode="&#xe2;" horiz-adv-x="1136" d="M-63 0l622 1071h258l217 -1071h-276l-29 184h-420l-98 -184h-274zM332 1192l311 326h203l193 -326h-213l-107 141l-153 -141h-234zM418 385h278l-34 221q-6 37 -11.5 73t-9.5 64q-4 33 -6 64h-4q-14 -31 -29 -64q-12 -29 -29.5 -64.5t-35.5 -72.5z" />
<glyph unicode="&#xe3;" horiz-adv-x="1136" d="M-63 0l622 1071h258l217 -1071h-276l-29 184h-420l-98 -184h-274zM356 1319q18 27 43.5 53.5t56.5 49t67 37t77 14.5q45 0 74.5 -11.5t54 -25t47 -24.5t53.5 -11q41 0 72.5 21.5t48.5 39.5l100 -106q-18 -27 -45 -54.5t-58.5 -50t-68.5 -37t-76 -14.5q-45 0 -74.5 11.5 t-54 24.5t-48 24.5t-54.5 11.5q-35 0 -66.5 -21.5t-50.5 -38.5zM418 385h278l-34 221q-6 37 -11.5 73t-9.5 64q-4 33 -6 64h-4q-14 -31 -29 -64q-12 -29 -29.5 -64.5t-35.5 -72.5z" />
<glyph unicode="&#xe4;" horiz-adv-x="1136" d="M-63 0l622 1071h258l217 -1071h-276l-29 184h-420l-98 -184h-274zM351 1339q0 59 41 100.5t106 41.5q66 0 106 -41t40 -101q0 -59 -41.5 -100t-104.5 -41q-66 0 -106.5 41t-40.5 100zM418 385h278l-34 221q-6 37 -11.5 73t-9.5 64q-4 33 -6 64h-4q-14 -31 -29 -64 q-12 -29 -29.5 -64.5t-35.5 -72.5zM779 1339q0 59 40 100.5t105 41.5q66 0 107 -41t41 -101q0 -59 -41 -100t-107 -41t-105.5 41t-39.5 100z" />
<glyph unicode="&#xe5;" horiz-adv-x="1136" d="M-63 0l622 1071h258l217 -1071h-276l-29 184h-420l-98 -184h-274zM418 385h278l-34 221q-6 37 -11.5 73t-9.5 64q-4 33 -6 64h-4q-14 -31 -29 -64q-12 -29 -29.5 -64.5t-35.5 -72.5zM498 1344q0 47 18.5 87t49 69.5t70.5 46t83 16.5t83 -16.5t71 -45t49 -68.5t18 -87 q0 -49 -18 -89t-49 -68.5t-71 -45t-83 -16.5t-83 16.5t-70.5 45t-49 68.5t-18.5 87zM627 1346q0 -41 24.5 -72.5t67.5 -31.5q45 0 68.5 31.5t23.5 72.5q0 43 -23.5 72.5t-68.5 29.5q-43 0 -67.5 -29.5t-24.5 -72.5z" />
<glyph unicode="&#xe6;" horiz-adv-x="1523" d="M-96 0l825 1071h793l-41 -213h-424l-39 -211h383l-37 -194h-383l-47 -240h446l-41 -213h-706l37 190h-342l-142 -190h-282zM477 391h232l84 424z" />
<glyph unicode="&#xe7;" horiz-adv-x="1034" d="M61 438q0 129 48.5 248t136.5 209t214 143.5t279 53.5q127 0 204 -25t122 -57l-123 -197q-41 25 -92 40t-129 15q-84 0 -152.5 -32.5t-118 -89t-77 -132t-27.5 -161.5q0 -113 56.5 -180.5t175.5 -67.5q84 0 145 26.5t108 59.5l103 -193q-47 -35 -140.5 -73.5 t-228.5 -42.5l-35 -95q66 -14 107 -55t41 -111q0 -86 -69.5 -139t-186.5 -53q-66 0 -108 10t-62 21l45 121q14 -6 36.5 -13.5t59.5 -7.5q43 0 69.5 17.5t26.5 54.5q0 25 -12 41t-32.5 24t-47 10.5t-53.5 -0.5l70 187q-92 18 -159 59t-110 99.5t-63.5 132t-20.5 153.5z" />
<glyph unicode="&#xe8;" horiz-adv-x="956" d="M55 0l199 1071h688l-39 -213h-424l-39 -211h381l-35 -194h-385l-47 -240h449l-41 -213h-707zM276 1466h336l121 -276h-227z" />
<glyph unicode="&#xe9;" horiz-adv-x="956" d="M55 0l199 1071h688l-39 -213h-424l-39 -211h381l-35 -194h-385l-47 -240h449l-41 -213h-707zM469 1190l215 276h348l-328 -276h-235z" />
<glyph unicode="&#xea;" horiz-adv-x="956" d="M55 0l199 1071h688l-39 -213h-424l-39 -211h381l-35 -194h-385l-47 -240h449l-41 -213h-707zM256 1192l311 326h203l193 -326h-213l-107 141l-153 -141h-234z" />
<glyph unicode="&#xeb;" horiz-adv-x="956" d="M55 0l199 1071h688l-39 -213h-424l-39 -211h381l-35 -194h-385l-47 -240h449l-41 -213h-707zM275 1339q0 59 41 100.5t106 41.5q66 0 106 -41t40 -101q0 -59 -41.5 -100t-104.5 -41q-66 0 -106.5 41t-40.5 100zM703 1339q0 59 40 100.5t105 41.5q66 0 107 -41t41 -101 q0 -59 -41 -100t-107 -41t-105.5 41t-39.5 100z" />
<glyph unicode="&#xec;" horiz-adv-x="569" d="M53 0l201 1071h270l-200 -1071h-271zM63 1466h336l121 -276h-227z" />
<glyph unicode="&#xed;" horiz-adv-x="569" d="M53 0l201 1071h270l-200 -1071h-271zM285 1190l215 276h348l-328 -276h-235z" />
<glyph unicode="&#xee;" horiz-adv-x="569" d="M49 1192l311 326h203l193 -326h-213l-107 141l-153 -141h-234zM53 0l201 1071h270l-200 -1071h-271z" />
<glyph unicode="&#xef;" horiz-adv-x="569" d="M53 0l201 1071h270l-200 -1071h-271zM70 1339q0 59 41 100.5t106 41.5q66 0 105.5 -41t39.5 -101q0 -59 -41 -100t-104 -41q-66 0 -106.5 41t-40.5 100zM498 1339q0 59 40 100.5t105 41.5q66 0 107 -41t41 -101q0 -59 -41 -100t-107 -41t-105.5 41t-39.5 100z" />
<glyph unicode="&#xf0;" horiz-adv-x="1210" d="M29 432l34 195h117l82 444h356q135 0 236.5 -31.5t169.5 -89t102.5 -137.5t34.5 -178q0 -129 -45 -244t-135 -202t-226.5 -138t-318.5 -51h-373l80 432h-114zM371 215h116q195 0 293.5 113.5t98.5 300.5q0 113 -65.5 170t-207.5 57h-112q-14 -63 -23 -115q-4 -23 -7 -43 t-7 -36q-4 -20 -8 -35h196l-35 -195h-198q-2 -16 -6 -35q-4 -16 -7.5 -34.5t-7.5 -38.5q-8 -49 -20 -109z" />
<glyph unicode="&#xf1;" horiz-adv-x="1259" d="M45 0l199 1071h264l264 -508q37 -70 57.5 -115t30.5 -73h2q4 29 10.5 74t16.5 104l96 518h244l-201 -1071h-237l-291 547q-33 59 -51.5 105t-28.5 75h-4q-2 -29 -7.5 -67.5t-17.5 -102.5l-104 -557h-242zM420 1319q18 27 43.5 53.5t56.5 49t67 37t77 14.5 q45 0 74.5 -11.5t54 -25t47 -24.5t53.5 -11q41 0 72.5 21.5t48.5 39.5l100 -106q-18 -27 -45 -54.5t-58.5 -50t-68.5 -37t-76 -14.5q-45 0 -74.5 11.5t-54 24.5t-48 24.5t-54.5 11.5q-35 0 -66.5 -21.5t-50.5 -38.5z" />
<glyph unicode="&#xf2;" horiz-adv-x="1277" d="M63 451q0 123 48.5 237.5t135.5 204.5t209 144.5t271 54.5q123 0 217 -37t156.5 -100.5t95.5 -148.5t33 -179q0 -127 -47 -244t-133 -206t-208 -142t-274 -53q-121 0 -215 36.5t-158.5 101t-97.5 149.5t-33 182zM346 457q0 -109 60.5 -183.5t181.5 -74.5q86 0 152.5 35.5 t112.5 95t69.5 135.5t23.5 156q0 104 -57.5 177.5t-179.5 73.5q-86 0 -154 -34.5t-114 -93t-70.5 -133t-24.5 -154.5zM391 1466h336l121 -276h-227z" />
<glyph unicode="&#xf3;" horiz-adv-x="1277" d="M63 451q0 123 48.5 237.5t135.5 204.5t209 144.5t271 54.5q123 0 217 -37t156.5 -100.5t95.5 -148.5t33 -179q0 -127 -47 -244t-133 -206t-208 -142t-274 -53q-121 0 -215 36.5t-158.5 101t-97.5 149.5t-33 182zM346 457q0 -109 60.5 -183.5t181.5 -74.5q86 0 152.5 35.5 t112.5 95t69.5 135.5t23.5 156q0 104 -57.5 177.5t-179.5 73.5q-86 0 -154 -34.5t-114 -93t-70.5 -133t-24.5 -154.5zM619 1190l215 276h348l-328 -276h-235z" />
<glyph unicode="&#xf4;" horiz-adv-x="1277" d="M63 451q0 123 48.5 237.5t135.5 204.5t209 144.5t271 54.5q123 0 217 -37t156.5 -100.5t95.5 -148.5t33 -179q0 -127 -47 -244t-133 -206t-208 -142t-274 -53q-121 0 -215 36.5t-158.5 101t-97.5 149.5t-33 182zM346 457q0 -109 60.5 -183.5t181.5 -74.5q86 0 152.5 35.5 t112.5 95t69.5 135.5t23.5 156q0 104 -57.5 177.5t-179.5 73.5q-86 0 -154 -34.5t-114 -93t-70.5 -133t-24.5 -154.5zM389 1192l311 326h203l193 -326h-213l-107 141l-153 -141h-234z" />
<glyph unicode="&#xf5;" horiz-adv-x="1277" d="M63 451q0 123 48.5 237.5t135.5 204.5t209 144.5t271 54.5q123 0 217 -37t156.5 -100.5t95.5 -148.5t33 -179q0 -127 -47 -244t-133 -206t-208 -142t-274 -53q-121 0 -215 36.5t-158.5 101t-97.5 149.5t-33 182zM346 457q0 -109 60.5 -183.5t181.5 -74.5q86 0 152.5 35.5 t112.5 95t69.5 135.5t23.5 156q0 104 -57.5 177.5t-179.5 73.5q-86 0 -154 -34.5t-114 -93t-70.5 -133t-24.5 -154.5zM430 1319q18 27 43.5 53.5t56.5 49t67 37t77 14.5q45 0 74.5 -11.5t54 -25t47 -24.5t53.5 -11q41 0 72.5 21.5t48.5 39.5l100 -106q-18 -27 -45 -54.5 t-58.5 -50t-68.5 -37t-76 -14.5q-45 0 -74.5 11.5t-54 24.5t-48 24.5t-54.5 11.5q-35 0 -66.5 -21.5t-50.5 -38.5z" />
<glyph unicode="&#xf6;" horiz-adv-x="1277" d="M63 451q0 123 48.5 237.5t135.5 204.5t209 144.5t271 54.5q123 0 217 -37t156.5 -100.5t95.5 -148.5t33 -179q0 -127 -47 -244t-133 -206t-208 -142t-274 -53q-121 0 -215 36.5t-158.5 101t-97.5 149.5t-33 182zM346 457q0 -109 60.5 -183.5t181.5 -74.5q86 0 152.5 35.5 t112.5 95t69.5 135.5t23.5 156q0 104 -57.5 177.5t-179.5 73.5q-86 0 -154 -34.5t-114 -93t-70.5 -133t-24.5 -154.5zM418 1339q0 59 41 100.5t106 41.5q66 0 106 -41t40 -101q0 -59 -41.5 -100t-104.5 -41q-66 0 -106.5 41t-40.5 100zM846 1339q0 59 40 100.5t105 41.5 q66 0 107 -41t41 -101q0 -59 -41 -100t-107 -41t-105.5 41t-39.5 100z" />
<glyph unicode="&#xf7;" horiz-adv-x="2095" d="M143 -432v1905h1905v-1905h-1905zM295 -279h1599v1600h-1599v-1600zM635 -2l403 1055h160l410 -1055h-181l-86 235h-458l-84 -235h-164zM932 369h358l-112 315q-12 35 -23.5 67.5t-21.5 59.5q-10 31 -19 59h-4q-10 -29 -18 -59q-8 -27 -18.5 -60.5t-22.5 -66.5z" />
<glyph unicode="&#xf8;" horiz-adv-x="1277" d="M12 -10l152 164q-100 123 -101 297q0 123 48.5 237.5t135.5 204.5t209 144.5t271 54.5q154 0 264 -58l146 158l137 -121l-141 -151q47 -59 71.5 -134t24.5 -159q0 -127 -47 -244t-133 -206t-208 -142t-274 -53q-150 0 -260 57l-155 -170zM344 457q0 -29 3 -55.5t11 -49.5 l473 500q-53 27 -122 27q-88 0 -156 -36t-114 -95.5t-70.5 -135t-24.5 -155.5zM465 221q27 -12 56.5 -19t66.5 -7q86 0 153.5 36.5t113.5 96t70.5 136.5t24.5 157q0 57 -14 100z" />
<glyph unicode="&#xf9;" horiz-adv-x="1189" d="M105.5 258q-15.5 86 3.5 188l116 625h267l-115 -618q-23 -127 16 -189.5t162 -62.5q119 0 174 61.5t78 181.5l119 627h245l-120 -639q-45 -240 -169 -345t-345 -105q-131 0 -221.5 33.5t-142.5 95t-67.5 147.5zM385 1468h336l121 -276h-227z" />
<glyph unicode="&#xfa;" horiz-adv-x="1189" d="M105.5 258q-15.5 86 3.5 188l116 625h267l-115 -618q-23 -127 16 -189.5t162 -62.5q119 0 174 61.5t78 181.5l119 627h245l-120 -639q-45 -240 -169 -345t-345 -105q-131 0 -221.5 33.5t-142.5 95t-67.5 147.5zM580 1190l215 276h348l-328 -276h-235z" />
<glyph unicode="&#xfb;" horiz-adv-x="1189" d="M105.5 258q-15.5 86 3.5 188l116 625h267l-115 -618q-23 -127 16 -189.5t162 -62.5q119 0 174 61.5t78 181.5l119 627h245l-120 -639q-45 -240 -169 -345t-345 -105q-131 0 -221.5 33.5t-142.5 95t-67.5 147.5zM366 1192l311 326h203l193 -326h-213l-107 141l-153 -141 h-234z" />
<glyph unicode="&#xfc;" horiz-adv-x="1189" d="M105.5 258q-15.5 86 3.5 188l116 625h267l-115 -618q-23 -127 16 -189.5t162 -62.5q119 0 174 61.5t78 181.5l119 627h245l-120 -639q-45 -240 -169 -345t-345 -105q-131 0 -221.5 33.5t-142.5 95t-67.5 147.5zM375 1339q0 59 41 100.5t106 41.5q66 0 106 -41t40 -101 q0 -59 -41.5 -100t-104.5 -41q-66 0 -106.5 41t-40.5 100zM803 1339q0 59 40 100.5t105 41.5q66 0 107 -41t41 -101q0 -59 -41 -100t-107 -41t-105.5 41t-39.5 100z" />
<glyph unicode="&#xfd;" horiz-adv-x="1021" d="M121 1071h280l142 -430l291 430h270l-471 -670l-78 -401h-270l77 403zM496 1190l215 276h348l-328 -276h-235z" />
<glyph unicode="&#xfe;" horiz-adv-x="1021" d="M45 0l201 1071h268l-29 -160h113q84 0 154.5 -19.5t121 -58t79 -94t28.5 -127.5q0 -106 -39 -184t-107.5 -129t-165 -75.5t-212.5 -24.5h-105l-37 -199h-270zM389 397h105q117 0 168 51.5t51 137.5q0 59 -38 92t-120 33h-109z" />
<glyph unicode="&#xff;" horiz-adv-x="1021" d="M121 1071h280l142 -430l291 430h270l-471 -670l-78 -401h-270l77 403zM287 1339q0 59 41 100.5t106 41.5q66 0 106 -41t40 -101q0 -59 -41.5 -100t-104.5 -41q-66 0 -106.5 41t-40.5 100zM715 1339q0 59 40 100.5t105 41.5q66 0 107 -41t41 -101q0 -59 -41 -100t-107 -41 t-105.5 41t-39.5 100z" />
<glyph unicode="&#x152;" horiz-adv-x="1878" d="M111 571q0 156 56 303.5t159.5 262t248 183.5t322.5 69q68 0 121 -6.5t100 -18.5h785l-43 -238h-492l-55 -307h434l-41 -225h-432l-66 -356h508l-43 -238h-764q-92 -25 -198 -25q-147 0 -259 47.5t-188 128t-114.5 189.5t-38.5 231zM410 575q0 -78 19.5 -145.5t59 -116.5 t100 -76.5t142.5 -27.5q59 0 109.5 14t93.5 39q41 238 74 424q14 78 27.5 155t23.5 136q12 70 24 131q-78 47 -202 47q-115 0 -202 -49t-147.5 -131t-91 -185.5t-30.5 -214.5z" />
<glyph unicode="&#x153;" horiz-adv-x="1585" d="M63 451q0 123 48.5 237.5t135.5 204.5t209 144.5t271 54.5q45 0 87 -5.5t81 -15.5h707l-39 -213h-424l-41 -211h383l-37 -194h-383l-47 -240h446l-41 -213h-688q-78 -18 -164 -18q-121 0 -215 36.5t-158.5 101t-97.5 149.5t-33 182zM346 457q0 -109 60.5 -183.5 t181.5 -74.5q53 0 95 12.5t77 32.5l53 291q23 127 53 288q-29 23 -66.5 36t-90.5 13q-86 0 -154 -34.5t-114 -93t-70.5 -133t-24.5 -154.5z" />
<glyph unicode="&#x178;" horiz-adv-x="1214" d="M180 1364h295l189 -590h2l376 590h293l-575 -850l-92 -514h-285l94 514zM373 1626q0 59 41 100.5t106 41.5q66 0 106 -41t40 -101q0 -59 -41.5 -100t-104.5 -41q-66 0 -106.5 41t-40.5 100zM801 1626q0 59 40 100.5t105 41.5q66 0 107 -41t41 -101q0 -59 -41 -100 t-107 -41t-105.5 41t-39.5 100z" />
<glyph unicode="&#x2c6;" horiz-adv-x="1024" d="M260 1110l311 326h203l193 -326h-213l-107 141l-153 -141h-234z" />
<glyph unicode="&#x2dc;" horiz-adv-x="1024" d="M293 1237q18 27 43.5 53.5t56.5 49t67 37t77 14.5q45 0 74.5 -11.5t54 -25t47 -24.5t53.5 -11q41 0 72.5 21.5t48.5 39.5l100 -106q-18 -27 -45 -54.5t-58.5 -50t-68.5 -37t-76 -14.5q-45 0 -74.5 11.5t-54 24.5t-48 24.5t-54.5 11.5q-35 0 -66.5 -21.5t-50.5 -38.5z" />
<glyph unicode="&#x2000;" horiz-adv-x="954" />
<glyph unicode="&#x2001;" horiz-adv-x="1909" />
<glyph unicode="&#x2002;" horiz-adv-x="954" />
<glyph unicode="&#x2003;" horiz-adv-x="1909" />
<glyph unicode="&#x2004;" horiz-adv-x="636" />
<glyph unicode="&#x2005;" horiz-adv-x="477" />
<glyph unicode="&#x2006;" horiz-adv-x="318" />
<glyph unicode="&#x2007;" horiz-adv-x="318" />
<glyph unicode="&#x2008;" horiz-adv-x="238" />
<glyph unicode="&#x2009;" horiz-adv-x="381" />
<glyph unicode="&#x200a;" horiz-adv-x="106" />
<glyph unicode="&#x2010;" horiz-adv-x="659" d="M94 467l37 221h463l-39 -221h-461z" />
<glyph unicode="&#x2011;" horiz-adv-x="659" d="M94 467l37 221h463l-39 -221h-461z" />
<glyph unicode="&#x2012;" horiz-adv-x="659" d="M94 467l37 221h463l-39 -221h-461z" />
<glyph unicode="&#x2013;" horiz-adv-x="1146" d="M86 444l37 211h954l-35 -211h-956z" />
<glyph unicode="&#x2014;" horiz-adv-x="1794" d="M86 444l37 211h1603l-36 -211h-1604z" />
<glyph unicode="&#x2018;" horiz-adv-x="481" d="M154 981q0 57 23.5 117.5t61 118t87 110.5t100.5 96l96 -84q-43 -45 -76.5 -92t-33.5 -104q0 -29 11 -50.5t23.5 -42t23.5 -45t11 -61.5q0 -66 -45.5 -107.5t-111.5 -41.5q-78 0 -124 51t-46 135z" />
<glyph unicode="&#x2019;" horiz-adv-x="481" d="M158 846q41 43 74.5 90t33.5 104q0 31 -10 51.5t-23.5 41t-23.5 45t-10 61.5q0 66 46 108t111 42q76 0 122 -50.5t46 -136.5q0 -59 -23.5 -118.5t-61.5 -117t-87 -109.5t-100 -97z" />
<glyph unicode="&#x201a;" horiz-adv-x="481" d="M-18 -233q43 43 76.5 90t33.5 104q0 31 -10 51.5t-23.5 41t-23.5 45t-10 61.5q0 66 45 107.5t110 41.5q78 0 124 -50t46 -136q0 -59 -23.5 -118.5t-61.5 -117t-87 -109.5t-100 -97z" />
<glyph unicode="&#x201c;" horiz-adv-x="913" d="M154 981q0 57 23.5 117.5t61 118t87 110.5t100.5 96l96 -84q-43 -45 -76.5 -92t-33.5 -104q0 -29 11 -50.5t23.5 -42t23.5 -45t11 -61.5q0 -66 -45.5 -107.5t-111.5 -41.5q-78 0 -124 51t-46 135zM588 981q0 57 23.5 117.5t61.5 118t87 110.5t100 96l94 -84 q-41 -45 -75.5 -92t-34.5 -104q0 -29 11 -50.5t23.5 -42t23.5 -45t11 -61.5q0 -66 -45.5 -107.5t-111.5 -41.5q-76 0 -122 51t-46 135z" />
<glyph unicode="&#x201d;" horiz-adv-x="913" d="M158 846q41 43 74.5 90t33.5 104q0 31 -10 51.5t-23.5 41t-23.5 45t-10 61.5q0 66 46 108t111 42q76 0 122 -50.5t46 -136.5q0 -59 -23.5 -118.5t-61.5 -117t-87 -109.5t-100 -97zM590 846q43 43 76.5 90t33.5 104q0 31 -11 51.5t-23.5 41t-23.5 45t-11 61.5q0 66 46 108 t111 42q78 0 124 -50.5t46 -136.5q0 -59 -23.5 -118.5t-61 -117t-87 -109.5t-100.5 -97z" />
<glyph unicode="&#x201e;" horiz-adv-x="913" d="M-18 -233q43 43 76.5 90t33.5 104q0 31 -10 51.5t-23.5 41t-23.5 45t-10 61.5q0 66 45 107.5t110 41.5q78 0 124 -50t46 -136q0 -59 -23.5 -118.5t-61.5 -117t-87 -109.5t-100 -97zM416 -233q43 43 76.5 90t33.5 104q0 31 -11 51.5t-23.5 41t-23.5 45t-11 61.5 q0 66 46 107.5t111 41.5q78 0 123 -50t45 -136q0 -59 -23.5 -118.5t-61.5 -117t-87 -109.5t-100 -97z" />
<glyph unicode="&#x2022;" horiz-adv-x="878" d="M84 588q0 76 27.5 141.5t77 114.5t114 77.5t137.5 28.5q74 0 139.5 -28.5t112.5 -77.5t75 -114.5t28 -141.5q0 -74 -28 -139.5t-75 -114.5t-112.5 -78t-139.5 -29t-138 29t-113.5 78t-77 114.5t-27.5 139.5z" />
<glyph unicode="&#x2026;" horiz-adv-x="1521" d="M41 152q0 72 51 121t127 49q72 0 123 -49.5t51 -120.5q0 -72 -51 -122t-123 -50q-76 0 -127 50t-51 122zM528 152q0 72 50.5 121t126.5 49q72 0 123 -49.5t51 -120.5q0 -72 -51 -122t-123 -50q-76 0 -126.5 50t-50.5 122zM1012 152q0 72 52 121t126 49q72 0 124 -49.5 t52 -120.5q0 -72 -52 -122t-124 -50q-74 0 -126 50t-52 122z" />
<glyph unicode="&#x202f;" horiz-adv-x="381" />
<glyph unicode="&#x2039;" horiz-adv-x="618" d="M49 498l309 399h287l-319 -408l163 -380h-268z" />
<glyph unicode="&#x203a;" horiz-adv-x="624" d="M-20 109l315 407l-164 381h268l172 -391l-307 -397h-284z" />
<glyph unicode="&#x205f;" horiz-adv-x="477" />
<glyph unicode="&#x2122;" horiz-adv-x="1443" d="M172 1225l23 139h514l-25 -139h-168l-82 -467h-166l80 467h-176zM647 758l187 606h163l50 -299q4 -23 6 -46.5t4 -41.5q2 -23 4 -43h4q8 20 18 43q10 18 20.5 41.5t22.5 46.5l156 299h176l-28 -606h-168l20 264q2 18 3 37.5t5 36.5q2 18 6 34h-4q-8 -16 -16 -38 q-8 -18 -17.5 -42t-21.5 -46l-133 -246h-146l-36 243q-4 23 -6.5 46.5t-4.5 42.5q-2 23 -4 40h-4q-2 -14 -6 -32l-9 -36t-11 -42l-74 -262h-156z" />
<glyph unicode="&#xe000;" horiz-adv-x="1075" d="M0 0v1075h1075v-1075h-1075z" />
</font>
</defs>
</svg>
